# xmcd CD database file
#
# Track frame offsets:
#	150
#	20012
#	46921
#	69235
#	87421
#	105549
#	128248
#	137932
#	149584
#	174219
#
# Disc length: 2583 seconds
#
# Revision: 0
# Processed by: cddbd v1.5.2PL0 Copyright (c) Steve Scherf et al.
# Submitted via: CDex 1.70beta2
#
DISCID=8a0a150a
DTITLE=Alexey Krupsky, Alexey Wagner - April Sky
DYEAR=2007
DGENRE=Jazz
TTITLE0=April Sky
TTITLE1=Estate
TTITLE2=Shades of the Sea
TTITLE3=Overjoyed
TTITLE4=Isn't She Lovely
TTITLE5=Time After Time
TTITLE6=La Lejania
TTITLE7=Spain Intro
TTITLE8=Spain
TTITLE9=My Song
EXTD=YEAR: 2007
EXTT0=
EXTT1=
EXTT2=
EXTT3=
EXTT4=
EXTT5=
EXTT6=
EXTT7=
EXTT8=
EXTT9=
PLAYORDER=
